<svg xmlns="http://www.w3.org/2000/svg"  viewBox="0 0 64 64" width="64px" height="64px" baseProfile="basic"><circle cx="32" cy="32" r="23" fill="#37d0ee"/><path fill="#fff" d="M45.417,21.938c0.436-0.513-0.111-1.267-0.733-1.007c-1.038,0.433-2.173,0.822-2.978,0.982	c-0.04,0.011-0.073,0.024-0.113,0.036C40.373,20.747,38.702,20,36.853,20c-3.727,0-6.749,3.022-6.749,6.749	c0,0.196-0.016,0.558,0,0.749c-4.213,0-7.584-1.849-10.182-4.429c-0.658-0.653-1.778-0.213-1.829,0.716	c-0.016,0.253-0.022,0.509-0.022,0.762c0,2.102,1.642,4.164,4.2,5.444c-0.471,0.122-0.989,0.209-1.529,0.209	c-0.496,0-1.18-0.204-1.736-0.42c-0.438-0.169-0.876,0.236-0.747,0.687c0.662,2.324,3.329,3.896,5.733,4.378	c-0.562,0.331-1.696,0.364-2.249,0.364c-0.162,0-0.5-0.031-0.864-0.073c-0.587-0.067-0.984,0.598-0.638,1.076	c1.18,1.622,3.416,2.52,5.564,2.558c-1.456,1.142-3.853,1.78-6.242,2.058c-0.844,0.098-1.029,1.253-0.256,1.607	c2.193,1,4.384,1.567,6.816,1.567c11.144,0,17.48-8.496,17.48-16.502c0-0.129-0.002-0.4-0.007-0.671c0-0.027,0.007-0.053,0.007-0.08	c0-0.04-0.011-0.08-0.011-0.12c-0.004-0.204-0.009-0.396-0.013-0.493c0.84-0.607,1.602-1.32,2.264-2.118	c0.233-0.28-0.047-0.689-0.391-0.578c-0.747,0.242-1.524,0.416-2.327,0.511C43.83,23.527,44.706,22.771,45.417,21.938z"/><ellipse cx="32" cy="61" opacity=".3" rx="19" ry="3"/><path fill="#fff" d="M32,14c2.577,0,4.674-1.957,4.946-4.461C35.352,9.19,33.699,9,32,9	C19.297,9,9,19.297,9,32c0,1.699,0.19,3.352,0.539,4.946C12.044,36.674,14,34.577,14,32C14,22.075,22.075,14,32,14z" opacity=".3"/><path fill="none" stroke="#fff" stroke-linecap="round" stroke-linejoin="round" stroke-miterlimit="10" stroke-width="3" d="M15.047,23.427c1.878-3.699,4.932-6.705,8.666-8.522"/><path d="M54.461,27.054C51.956,27.326,50,29.423,50,32c0,9.925-8.075,18-18,18	c-2.577,0-4.674,1.957-4.946,4.461C28.648,54.81,30.301,55,32,55c12.703,0,23-10.297,23-23C55,30.301,54.81,28.648,54.461,27.054z" opacity=".15"/></svg>